<svg xmlns="http://www.w3.org/2000/svg" viewBox="0 0 128 128" role="img" aria-labelledby="title desc">
  <title id="title">Sanitization and Hygiene Logo</title>
  <desc id="desc">A water drop with hygiene shield and sparkle elements.</desc>
  <defs>
    <linearGradient id="dropGradient" x1="22" y1="14" x2="106" y2="116" gradientUnits="userSpaceOnUse">
      <stop offset="0" stop-color="#4F46E5"/>
      <stop offset="0.55" stop-color="#06B6D4"/>
      <stop offset="1" stop-color="#8B5CF6"/>
    </linearGradient>
    <linearGradient id="shieldGradient" x1="43" y1="48" x2="86" y2="94" gradientUnits="userSpaceOnUse">
      <stop offset="0" stop-color="#FFFFFF"/>
      <stop offset="1" stop-color="#E0F2FE"/>
    </linearGradient>
  </defs>
  <rect width="128" height="128" rx="28" fill="#F8FAFC"/>
  <path d="M64 14C49.5 32.2 33 53.5 33 75.1C33 96.2 46.8 111 64 111C81.2 111 95 96.2 95 75.1C95 53.5 78.5 32.2 64 14Z" fill="url(#dropGradient)"/>
  <path d="M63.8 49L84 57.2V72.1C84 86.1 75.7 96.9 63.8 101.6C52 96.9 43.7 86.1 43.7 72.1V57.2L63.8 49Z" fill="url(#shieldGradient)" opacity="0.96"/>
  <path d="M55.1 73.2L61.4 79.4L74.6 63.9" fill="none" stroke="#06B6D4" stroke-width="7" stroke-linecap="round" stroke-linejoin="round"/>
  <circle cx="38" cy="33" r="5" fill="#06B6D4" opacity="0.9"/>
  <circle cx="94" cy="36" r="4" fill="#8B5CF6" opacity="0.85"/>
  <path d="M28 94C34.5 91.2 41.8 91.2 48.2 94C54.7 96.8 62 96.8 68.4 94C74.9 91.2 82.2 91.2 88.6 94" fill="none" stroke="#FFFFFF" stroke-width="5" stroke-linecap="round" opacity="0.78"/>
</svg>
